<svg id="Camada_1" data-name="Camada 1" xmlns="http://www.w3.org/2000/svg" width="38.57" height="16.12" viewBox="0 0 38.57 16.12">
  <title>logowhite</title>
  <g>
    <path d="M61.33,3.87A11.36,11.36,0,0,0,61,2.35l-.38-1.19h-4l-.38,1.19a7.52,7.52,0,0,0-.35,1.52H52.59a14.81,14.81,0,0,0,.67-1.71l3-8.46a8.81,8.81,0,0,0,.45-1.52h3.66a11.85,11.85,0,0,0,.48,1.52l3,8.46c.27.74.49,1.32.68,1.71ZM58.59-5.42,57.28-1.2h2.64Z" transform="translate(-51.98 8.26)" style="fill: #fff;stroke: #fff;stroke-miterlimit: 10;stroke-width: 0.75px"/>
    <path d="M66.34-5.8a13,13,0,0,0-.12-2.06c.56,0,.91,0,2.08,0h2.93a5.67,5.67,0,0,1,4.06,1.39,5.88,5.88,0,0,1,1.55,4.36,6.21,6.21,0,0,1-1.63,4.54,5.45,5.45,0,0,1-3.95,1.4h-3c-1.09,0-1.48,0-2.07,0a14,14,0,0,0,.11-2ZM71,1.41A2.72,2.72,0,0,0,73.07.67,3.8,3.8,0,0,0,74-2a3.62,3.62,0,0,0-.81-2.62A2.89,2.89,0,0,0,71-5.36H69.13V1.41Z" transform="translate(-51.98 8.26)" style="fill: #fff;stroke: #fff;stroke-miterlimit: 10;stroke-width: 0.75px"/>
    <path d="M83.77.46c.11.37.11.37.26,1l.27-1,2-6.76a7.84,7.84,0,0,0,.32-1.52H90c-.19.42-.32.74-.67,1.71l-3,8.46a12.22,12.22,0,0,0-.45,1.52H82.21a13,13,0,0,0-.45-1.52l-3-8.46c-.28-.81-.42-1.16-.66-1.71h3.29a9.82,9.82,0,0,0,.34,1.52Z" transform="translate(-51.98 8.26)" style="fill: #fff;stroke: #fff;stroke-miterlimit: 10;stroke-width: 0.75px"/>
  </g>
  <g>
    <path d="M53.34,7.82a2.91,2.91,0,0,0,0-.31V6.36c0-.11,0-.21,0-.31h.77c.42,0,.66.2.66.57a.58.58,0,0,1-.66.6h-.33V7.5a3,3,0,0,0,0,.32Zm.75-1a.21.21,0,0,0,.24-.23c0-.15-.09-.22-.24-.22h-.31v.45Z" transform="translate(-51.98 8.26)" style="fill: #fff"/>
    <path d="M56.45,7.84a2.5,2.5,0,0,0-.35,0h-1a1.37,1.37,0,0,0,0-.31V6.36a1.47,1.47,0,0,0,0-.31h1l.32,0v.4l-.32,0h-.55v.31h.78v.39h-.78v.35h.89Z" transform="translate(-51.98 8.26)" style="fill: #fff"/>
    <path d="M57.91,7.82a1.7,1.7,0,0,0-.11-.33.62.62,0,0,0-.14-.28.25.25,0,0,0-.17-.06h-.21V7.5a2.92,2.92,0,0,0,0,.32h-.45a2.82,2.82,0,0,0,0-.32V6.36a2.91,2.91,0,0,0,0-.31h.86c.35,0,.55.17.55.48a.45.45,0,0,1-.13.35.42.42,0,0,1-.2.1c.11,0,.16.09.23.24l.15.37.1.22Zm-.3-1a.19.19,0,0,0,.2-.2c0-.12-.07-.18-.2-.18h-.33v.38Z" transform="translate(-51.98 8.26)" style="fill: #fff"/>
    <path d="M59.78,7.18h-.21V6.81h.73a1.15,1.15,0,0,0,0,.29v.24a1.47,1.47,0,0,0,0,.32,1.29,1.29,0,0,1-.27.13,1.37,1.37,0,0,1-.45.07A.82.82,0,0,1,59,7.63a.94.94,0,0,1-.25-.7A.83.83,0,0,1,59.57,6a.73.73,0,0,1,.6.25.58.58,0,0,1,.13.23l-.43.1a.25.25,0,0,0-.1-.15.28.28,0,0,0-.21-.07c-.27,0-.42.2-.42.56a.63.63,0,0,0,.13.44.39.39,0,0,0,.3.11.67.67,0,0,0,.31-.07V7.18Z" transform="translate(-51.98 8.26)" style="fill: #fff"/>
    <path d="M62.32,6.06a2.73,2.73,0,0,0,0,.32v.73a.7.7,0,0,1-.8.75.84.84,0,0,1-.61-.2.82.82,0,0,1-.19-.56V6.38a2.73,2.73,0,0,0,0-.32h.45a2.64,2.64,0,0,0,0,.32v.73c0,.26.12.39.37.39s.37-.13.37-.39V6.38a2.73,2.73,0,0,0,0-.32Z" transform="translate(-51.98 8.26)" style="fill: #fff"/>
    <path d="M63.77,6.92c.06.1.1.16.15.26a3,3,0,0,1,0-.32V6.38a2.92,2.92,0,0,0,0-.32h.45a2.58,2.58,0,0,0,0,.32V7.51a2.69,2.69,0,0,0,0,.31h-.47a1.54,1.54,0,0,0-.15-.27L63.32,7l-.15-.26a3,3,0,0,1,0,.32v.47a3,3,0,0,0,0,.33h-.45a2.38,2.38,0,0,0,0-.33V6.37a2.69,2.69,0,0,0,0-.31h.46a1.68,1.68,0,0,0,.15.26Z" transform="translate(-51.98 8.26)" style="fill: #fff"/>
    <path d="M65.68,7.5a1.57,1.57,0,0,0,0,.32h-.47a3.11,3.11,0,0,0,0-.32V6.43H65a1.83,1.83,0,0,0-.32,0V6l.32,0h.93l.33,0v.41l-.33,0h-.24Z" transform="translate(-51.98 8.26)" style="fill: #fff"/>
    <path d="M67.91,7.84a2.61,2.61,0,0,0-.35,0h-1a2.41,2.41,0,0,0,0-.31V6.36a2.69,2.69,0,0,0,0-.31h1l.32,0v.4l-.32,0H67v.31h.77v.39H67v.35h.89Z" transform="translate(-51.98 8.26)" style="fill: #fff"/>
    <path d="M70.37,7.82c0-.1,0-.16-.05-.23l-.06-.18h-.6l-.06.18a1.06,1.06,0,0,0,0,.23h-.5a1.78,1.78,0,0,0,.1-.26l.46-1.27a1.32,1.32,0,0,0,.07-.23h.55c0,.06,0,.11.07.23l.46,1.27a2.54,2.54,0,0,0,.11.26ZM70,6.42l-.2.64h.4Z" transform="translate(-51.98 8.26)" style="fill: #fff"/>
    <path d="M72.84,6.93a.84.84,0,0,1-.86.93.83.83,0,0,1-.85-.92.86.86,0,1,1,1.71,0Zm-.44,0c0-.34-.16-.55-.42-.55s-.41.21-.41.55.16.56.41.56S72.4,7.28,72.4,6.93Z" transform="translate(-51.98 8.26)" style="fill: #fff"/>
    <path d="M75.29,7.82a1.14,1.14,0,0,0-.05-.23l0-.18h-.61l-.06.18c0,.09,0,.15,0,.23H74a1,1,0,0,0,.11-.26l.45-1.27a1.32,1.32,0,0,0,.07-.23h.56a1.64,1.64,0,0,0,.07.23l.46,1.27c0,.11.07.2.1.26Zm-.41-1.4-.2.64h.4Z" transform="translate(-51.98 8.26)" style="fill: #fff"/>
    <path d="M76.12,6.36a2.82,2.82,0,0,0,0-.31h.75a.88.88,0,0,1,.62.21.89.89,0,0,1,.23.65,1,1,0,0,1-.25.69.8.8,0,0,1-.59.21h-.76a2.82,2.82,0,0,0,0-.31Zm.71,1.09a.43.43,0,0,0,.31-.11.56.56,0,0,0,.13-.41.54.54,0,0,0-.12-.39.41.41,0,0,0-.33-.11h-.28v1Z" transform="translate(-51.98 8.26)" style="fill: #fff"/>
    <path d="M78.83,7.31a.82.82,0,0,0,0,.14c0-.09,0-.1,0-.14l.31-1a1.24,1.24,0,0,0,0-.23h.5a2.06,2.06,0,0,0-.1.25l-.45,1.28a1.64,1.64,0,0,0-.07.23h-.55a1.32,1.32,0,0,0-.07-.23l-.45-1.28a1.61,1.61,0,0,0-.1-.25h.5c0,.06,0,.15,0,.23Z" transform="translate(-51.98 8.26)" style="fill: #fff"/>
    <path d="M81.74,6.93a.85.85,0,0,1-.86.93A.84.84,0,0,1,80,6.94a.86.86,0,1,1,1.72,0Zm-.45,0c0-.34-.15-.55-.41-.55s-.42.21-.42.55.16.56.42.56S81.29,7.28,81.29,6.93Z" transform="translate(-51.98 8.26)" style="fill: #fff"/>
    <path d="M83.15,7.18h-.21V6.81h.72a2.27,2.27,0,0,0,0,.29v.24a2.92,2.92,0,0,0,0,.32,1,1,0,0,1-.27.13,1.29,1.29,0,0,1-.45.07.82.82,0,0,1-.63-.23,1,1,0,0,1-.25-.7A.83.83,0,0,1,82.94,6a.71.71,0,0,1,.73.48l-.44.1a.21.21,0,0,0-.09-.15.32.32,0,0,0-.22-.07c-.27,0-.42.2-.42.56a.68.68,0,0,0,.13.44.43.43,0,0,0,.31.11.7.7,0,0,0,.31-.07V7.18Z" transform="translate(-51.98 8.26)" style="fill: #fff"/>
    <path d="M85.27,7.82c0-.1,0-.16,0-.23l-.06-.18h-.6l-.06.18a1.06,1.06,0,0,0,0,.23H84a1.78,1.78,0,0,0,.1-.26l.46-1.27a1.32,1.32,0,0,0,.07-.23h.55a2.2,2.2,0,0,0,.08.23l.46,1.27c0,.11.07.2.1.26Zm-.41-1.4-.2.64h.4Z" transform="translate(-51.98 8.26)" style="fill: #fff"/>
    <path d="M86.1,6.36a1.42,1.42,0,0,0,0-.31h.76a.84.84,0,0,1,.61.21.85.85,0,0,1,.24.65,1,1,0,0,1-.25.69.81.81,0,0,1-.6.21h-.76a1.42,1.42,0,0,0,0-.31Zm.71,1.09a.45.45,0,0,0,.31-.11.61.61,0,0,0,.13-.41.54.54,0,0,0-.12-.39.43.43,0,0,0-.33-.11h-.28v1Z" transform="translate(-51.98 8.26)" style="fill: #fff"/>
    <path d="M89.72,6.93a.86.86,0,1,1-1.71,0A.84.84,0,0,1,88.87,6,.82.82,0,0,1,89.72,6.93Zm-.44,0c0-.34-.15-.55-.41-.55s-.42.21-.42.55.16.56.42.56S89.28,7.28,89.28,6.93Z" transform="translate(-51.98 8.26)" style="fill: #fff"/>
  </g>
</svg>
