<?xml version="1.0" encoding="utf-8"?>
<!-- Generator: Adobe Illustrator 23.0.6, SVG Export Plug-In . SVG Version: 6.00 Build 0)  -->
<svg version="1.2" baseProfile="tiny" id="Camada_1"
	 xmlns="http://www.w3.org/2000/svg" xmlns:xlink="http://www.w3.org/1999/xlink" x="0px" y="0px" viewBox="0 0 39.2 20.8"
	 xml:space="preserve">
<title>Sem título-3</title>
<g>
	<path fill="#E11E3C" d="M11,13.1c-0.1-0.6-0.2-0.9-0.3-1.3l-0.3-1H7l-0.3,1c-0.2,0.5-0.2,0.9-0.3,1.3H3.5c0.2-0.4,0.3-0.6,0.6-1.5
		l2.6-7.2C6.9,3.9,7,3.5,7.1,3.2h3.1c0.1,0.3,0.2,0.7,0.4,1.3l2.6,7.2c0.2,0.6,0.4,1.1,0.6,1.5H11z M8.7,5.2L7.5,8.8h2.3L8.7,5.2z"
		/>
	<path fill="#E11E3C" d="M14.7,4.9c0-0.8,0-1.2-0.1-1.8c0.5,0,0.8,0,1.8,0h2.5c1.5,0,2.7,0.4,3.5,1.2c0.9,0.9,1.3,2.1,1.3,3.7
		c0,1.6-0.5,3-1.4,3.9c-0.8,0.8-1.9,1.2-3.4,1.2h-2.5c-0.9,0-1.3,0-1.8,0c0.1-0.5,0.1-0.9,0.1-1.8V4.9z M18.7,11
		c0.8,0,1.3-0.2,1.8-0.6c0.5-0.5,0.8-1.3,0.8-2.3c0-1-0.2-1.8-0.7-2.2c-0.4-0.4-1-0.6-1.9-0.6h-1.6V11H18.7z"/>
	<path fill="#E11E3C" d="M29.1,10.2c0.1,0.3,0.1,0.3,0.2,0.8c0.1-0.5,0.2-0.6,0.2-0.8l1.7-5.8c0.2-0.6,0.2-0.9,0.3-1.3h2.8
		c-0.2,0.4-0.3,0.6-0.6,1.5l-2.5,7.2c-0.2,0.6-0.3,1-0.4,1.3h-3.1c-0.1-0.3-0.2-0.7-0.4-1.3l-2.6-7.2c-0.2-0.7-0.4-1-0.6-1.5h2.8
		c0,0.4,0.2,0.9,0.3,1.3L29.1,10.2z"/>
</g>
<g>
	<path fill="#E11E3C" stroke="#E11E3C" stroke-width="0.5" stroke-miterlimit="10" d="M11,13.1c-0.1-0.6-0.2-0.9-0.3-1.3l-0.3-1H7
		l-0.3,1c-0.2,0.5-0.2,0.9-0.3,1.3H3.5c0.2-0.4,0.3-0.6,0.6-1.5l2.6-7.2C6.9,3.9,7,3.5,7.1,3.2h3.1c0.1,0.3,0.2,0.7,0.4,1.3l2.6,7.2
		c0.2,0.6,0.4,1.1,0.6,1.5H11z M8.7,5.2L7.5,8.8h2.3L8.7,5.2z"/>
	<path fill="#E11E3C" stroke="#E11E3C" stroke-width="0.5" stroke-miterlimit="10" d="M14.7,4.9c0-0.8,0-1.2-0.1-1.8
		c0.5,0,0.8,0,1.8,0h2.5c1.5,0,2.7,0.4,3.5,1.2c0.9,0.9,1.3,2.1,1.3,3.7c0,1.6-0.5,3-1.4,3.9c-0.8,0.8-1.9,1.2-3.4,1.2h-2.5
		c-0.9,0-1.3,0-1.8,0c0.1-0.5,0.1-0.9,0.1-1.8V4.9z M18.7,11c0.8,0,1.3-0.2,1.8-0.6c0.5-0.5,0.8-1.3,0.8-2.3c0-1-0.2-1.8-0.7-2.2
		c-0.4-0.4-1-0.6-1.9-0.6h-1.6V11H18.7z"/>
	<path fill="#E11E3C" stroke="#E11E3C" stroke-width="0.5" stroke-miterlimit="10" d="M29.1,10.2c0.1,0.3,0.1,0.3,0.2,0.8
		c0.1-0.5,0.2-0.6,0.2-0.8l1.7-5.8c0.2-0.6,0.2-0.9,0.3-1.3h2.8c-0.2,0.4-0.3,0.6-0.6,1.5l-2.5,7.2c-0.2,0.6-0.3,1-0.4,1.3h-3.1
		c-0.1-0.3-0.2-0.7-0.4-1.3l-2.6-7.2c-0.2-0.7-0.4-1-0.6-1.5h2.8c0,0.4,0.2,0.9,0.3,1.3L29.1,10.2z"/>
</g>
<g>
	<path fill="#E11E3C" d="M2.8,16.3c0-0.1,0-0.2,0-0.3v-1.1c0-0.1,0-0.2,0-0.3c0.1,0,0.2,0,0.3,0h0.5c0.4,0,0.6,0.2,0.6,0.6
		c0,0.4-0.2,0.6-0.6,0.6H3.3V16c0,0.1,0,0.2,0,0.3H2.8z M3.6,15.4c0.1,0,0.2-0.1,0.2-0.2s-0.1-0.2-0.2-0.2H3.3v0.4H3.6z"/>
	<path fill="#E11E3C" d="M5.7,16.3c-0.1,0-0.2,0-0.3,0H4.7c-0.2,0-0.2,0-0.3,0c0-0.1,0-0.2,0-0.3v-1.1c0-0.1,0-0.2,0-0.3
		c0.1,0,0.1,0,0.3,0h0.7c0.1,0,0.2,0,0.3,0V15c-0.1,0-0.2,0-0.3,0H4.8v0.3h0.4c0.1,0,0.2,0,0.3,0v0.4c-0.1,0-0.2,0-0.3,0H4.8V16h0.5
		c0.2,0,0.2,0,0.3,0V16.3z"/>
	<path fill="#E11E3C" d="M7,16.3c0-0.1,0-0.2-0.1-0.3c-0.1-0.2-0.1-0.2-0.1-0.3c0,0-0.1-0.1-0.2-0.1H6.3V16c0,0.1,0,0.2,0,0.3H5.9
		c0-0.1,0-0.2,0-0.3v-1.1c0-0.1,0-0.2,0-0.3c0.1,0,0.2,0,0.3,0h0.5c0.3,0,0.5,0.2,0.5,0.5c0,0.1,0,0.3-0.1,0.3
		c-0.1,0-0.1,0.1-0.2,0.1c0.1,0,0.2,0.1,0.2,0.2c0,0.1,0.1,0.1,0.2,0.4c0,0.1,0,0.1,0.1,0.2H7z M6.7,15.3c0.1,0,0.2-0.1,0.2-0.2
		c0-0.1-0.1-0.2-0.2-0.2H6.3v0.4H6.7z"/>
	<path fill="#E11E3C" d="M8.6,15.7c-0.1,0-0.1,0-0.2,0v-0.4c0.1,0,0.1,0,0.3,0h0.2c0.1,0,0.2,0,0.3,0c0,0.1,0,0.1,0,0.3v0.2
		c0,0.1,0,0.2,0,0.3c-0.1,0.1-0.2,0.1-0.3,0.1c-0.1,0-0.3,0.1-0.4,0.1c-0.3,0-0.5-0.1-0.6-0.2c-0.2-0.2-0.2-0.4-0.2-0.7
		c0-0.5,0.3-0.9,0.8-0.9c0.3,0,0.5,0.1,0.6,0.2C9,14.9,9.1,14.9,9.1,15l-0.4,0.1c0-0.1,0-0.1-0.1-0.1c-0.1,0-0.1-0.1-0.2-0.1
		c-0.3,0-0.4,0.2-0.4,0.5c0,0.2,0,0.3,0.1,0.4C8.2,16,8.3,16,8.4,16c0.1,0,0.2,0,0.3-0.1L8.6,15.7L8.6,15.7z"/>
	<path fill="#E11E3C" d="M10.9,14.6c0,0.1,0,0.2,0,0.3v0.7c0,0.5-0.3,0.7-0.8,0.7c-0.3,0-0.5-0.1-0.6-0.2c-0.1-0.1-0.2-0.3-0.2-0.5
		v-0.7c0-0.1,0-0.2,0-0.3h0.4c0,0.1,0,0.2,0,0.3v0.7c0,0.3,0.1,0.4,0.4,0.4c0.2,0,0.4-0.1,0.4-0.4v-0.7c0-0.2,0-0.2,0-0.3H10.9z"/>
	<path fill="#E11E3C" d="M12.1,15.4c0.1,0.1,0.1,0.2,0.1,0.2c0-0.1,0-0.2,0-0.3v-0.5c0-0.1,0-0.2,0-0.3h0.4c0,0.1,0,0.2,0,0.3V16
		c0,0.1,0,0.2,0,0.3h-0.5c0-0.1-0.1-0.2-0.2-0.3l-0.4-0.6c-0.1-0.1-0.1-0.1-0.1-0.3c0,0.1,0,0.2,0,0.3V16c0,0.1,0,0.2,0,0.3h-0.4
		c0-0.1,0-0.2,0-0.3v-1.1c0-0.1,0-0.2,0-0.3h0.4c0,0.1,0.1,0.1,0.1,0.3L12.1,15.4z"/>
	<path fill="#E11E3C" d="M13.8,16c0,0.1,0,0.2,0,0.3h-0.5c0-0.1,0-0.2,0-0.3v-1h-0.2c-0.1,0-0.2,0-0.3,0v-0.4c0.1,0,0.2,0,0.3,0h0.9
		c0.1,0,0.2,0,0.3,0V15c-0.1,0-0.2,0-0.3,0h-0.2V16z"/>
	<path fill="#E11E3C" d="M15.8,16.3c-0.1,0-0.2,0-0.3,0h-0.6c-0.2,0-0.2,0-0.3,0c0-0.1,0-0.2,0-0.3v-1.1c0-0.1,0-0.2,0-0.3
		c0.1,0,0.1,0,0.3,0h0.7c0.1,0,0.2,0,0.3,0V15c-0.1,0-0.2,0-0.3,0H15v0.3h0.4c0.1,0,0.2,0,0.3,0v0.4c-0.1,0-0.2,0-0.3,0H15V16h0.5
		c0.2,0,0.2,0,0.3,0V16.3z"/>
	<path fill="#E11E3C" d="M17.9,16.3c0-0.1,0-0.2,0-0.2l-0.1-0.2h-0.6l-0.1,0.2c0,0.1,0,0.1-0.1,0.2h-0.5c0-0.1,0-0.1,0.1-0.3
		l0.4-1.2c0-0.1,0.1-0.2,0.1-0.2h0.5c0,0.1,0,0.1,0.1,0.2l0.4,1.2c0,0.1,0.1,0.2,0.1,0.3H17.9z M17.5,14.9l-0.2,0.6h0.4L17.5,14.9z"
		/>
	<path fill="#E11E3C" d="M20.1,15.4c0,0.5-0.3,0.9-0.8,0.9c-0.5,0-0.8-0.4-0.8-0.9c0-0.5,0.3-0.9,0.8-0.9
		C19.8,14.6,20.1,14.9,20.1,15.4z M19.7,15.4c0-0.3-0.2-0.5-0.4-0.5c-0.3,0-0.4,0.2-0.4,0.5c0,0.3,0.2,0.5,0.4,0.5
		C19.6,16,19.7,15.8,19.7,15.4z"/>
	<path fill="#E11E3C" d="M22.2,16.3c0-0.1,0-0.2,0-0.2l-0.1-0.2h-0.6l-0.1,0.2c0,0.1,0,0.1-0.1,0.2h-0.5c0-0.1,0-0.1,0.1-0.3
		l0.4-1.2c0-0.1,0.1-0.2,0.1-0.2h0.5c0,0.1,0,0.1,0.1,0.2l0.4,1.2c0,0.1,0.1,0.2,0.1,0.3H22.2z M21.8,14.9l-0.2,0.6H22L21.8,14.9z"
		/>
	<path fill="#E11E3C" d="M22.8,14.9c0-0.1,0-0.2,0-0.3c0.1,0,0.1,0,0.3,0h0.4c0.3,0,0.5,0.1,0.6,0.2c0.2,0.1,0.2,0.4,0.2,0.6
		c0,0.3-0.1,0.5-0.2,0.7c-0.1,0.1-0.3,0.2-0.6,0.2h-0.4c-0.2,0-0.2,0-0.3,0c0-0.1,0-0.2,0-0.3V14.9z M23.5,15.9c0.1,0,0.2,0,0.3-0.1
		c0.1-0.1,0.1-0.2,0.1-0.4c0-0.2,0-0.3-0.1-0.4C23.8,15,23.7,15,23.5,15h-0.3v1H23.5z"/>
	<path fill="#E11E3C" d="M25.3,15.8c0,0.1,0,0.1,0,0.1C25.4,15.9,25.4,15.8,25.3,15.8l0.4-1c0-0.1,0-0.2,0-0.2h0.5
		c0,0.1,0,0.1-0.1,0.3l-0.4,1.2c0,0.1-0.1,0.2-0.1,0.2h-0.5c0-0.1,0-0.1-0.1-0.2l-0.4-1.2c0-0.1-0.1-0.2-0.1-0.3H25
		c0,0.1,0,0.1,0,0.2L25.3,15.8z"/>
	<path fill="#E11E3C" d="M28,15.4c0,0.5-0.3,0.9-0.8,0.9c-0.5,0-0.8-0.4-0.8-0.9c0-0.5,0.3-0.9,0.8-0.9S28,14.9,28,15.4z M27.5,15.4
		c0-0.3-0.2-0.5-0.4-0.5c-0.3,0-0.4,0.2-0.4,0.5c0,0.3,0.2,0.5,0.4,0.5C27.4,16,27.5,15.8,27.5,15.4z"/>
	<path fill="#E11E3C" d="M29.2,15.7c-0.1,0-0.1,0-0.2,0v-0.4c0.1,0,0.1,0,0.3,0h0.2c0.1,0,0.2,0,0.3,0c0,0.1,0,0.1,0,0.3v0.2
		c0,0.1,0,0.2,0,0.3c-0.1,0.1-0.2,0.1-0.3,0.1c-0.1,0-0.3,0.1-0.4,0.1c-0.3,0-0.5-0.1-0.6-0.2c-0.2-0.2-0.2-0.4-0.2-0.7
		c0-0.5,0.3-0.9,0.8-0.9c0.3,0,0.5,0.1,0.6,0.2c0.1,0.1,0.1,0.1,0.1,0.2l-0.4,0.1c0-0.1,0-0.1-0.1-0.1c-0.1,0-0.1-0.1-0.2-0.1
		c-0.3,0-0.4,0.2-0.4,0.5c0,0.2,0,0.3,0.1,0.4C28.7,16,28.8,16,29,16c0.1,0,0.2,0,0.3-0.1L29.2,15.7L29.2,15.7z"/>
	<path fill="#E11E3C" d="M31.1,16.3c0-0.1,0-0.2,0-0.2L31,15.9h-0.6l-0.1,0.2c0,0.1,0,0.1-0.1,0.2h-0.5c0-0.1,0-0.1,0.1-0.3l0.4-1.2
		c0-0.1,0.1-0.2,0.1-0.2h0.5c0,0.1,0,0.1,0.1,0.2l0.4,1.2c0,0.1,0.1,0.2,0.1,0.3H31.1z M30.7,14.9l-0.2,0.6h0.4L30.7,14.9z"/>
	<path fill="#E11E3C" d="M31.7,14.9c0-0.1,0-0.2,0-0.3c0.1,0,0.1,0,0.3,0h0.4c0.3,0,0.5,0.1,0.6,0.2c0.2,0.1,0.2,0.4,0.2,0.6
		c0,0.3-0.1,0.5-0.2,0.7c-0.1,0.1-0.3,0.2-0.6,0.2H32c-0.2,0-0.2,0-0.3,0c0-0.1,0-0.2,0-0.3V14.9z M32.4,15.9c0.1,0,0.2,0,0.3-0.1
		c0.1-0.1,0.1-0.2,0.1-0.4c0-0.2,0-0.3-0.1-0.4C32.6,15,32.5,15,32.4,15h-0.3v1H32.4z"/>
	<path fill="#E11E3C" d="M35.1,15.4c0,0.5-0.3,0.9-0.8,0.9c-0.5,0-0.8-0.4-0.8-0.9c0-0.5,0.3-0.9,0.8-0.9S35.1,14.9,35.1,15.4z
		 M34.6,15.4c0-0.3-0.2-0.5-0.4-0.5c-0.3,0-0.4,0.2-0.4,0.5c0,0.3,0.2,0.5,0.4,0.5C34.5,16,34.6,15.8,34.6,15.4z"/>
</g>
</svg>
