<svg id="Camada_1" data-name="Camada 1" xmlns="http://www.w3.org/2000/svg" width="38.57" height="16.12" viewBox="0 0 38.57 16.12">
  <title>logored</title>
  <g>
    <path d="M54.5,36.67a11.36,11.36,0,0,0-.34-1.52L53.78,34h-4l-.38,1.19a8.27,8.27,0,0,0-.35,1.52H45.76A13.13,13.13,0,0,0,46.43,35l3-8.46A8.81,8.81,0,0,0,49.92,25h3.67a11.44,11.44,0,0,0,.47,1.52l3,8.46c.27.74.5,1.32.68,1.71Zm-2.74-9.29L50.45,31.6H53.1Z" transform="translate(-45.15 -24.54)" style="fill: #e11e3c;stroke: #e11e3c;stroke-miterlimit: 10;stroke-width: 0.75px"/>
    <path d="M59.52,27a11.78,11.78,0,0,0-.13-2.06c.56,0,.91,0,2.08,0h2.94a5.69,5.69,0,0,1,4.06,1.39A5.91,5.91,0,0,1,70,30.73a6.21,6.21,0,0,1-1.63,4.54,5.44,5.44,0,0,1-3.95,1.4h-3c-1.08,0-1.48,0-2.07,0a12.56,12.56,0,0,0,.12-2.05Zm4.66,7.21a2.75,2.75,0,0,0,2.07-.74,3.84,3.84,0,0,0,.88-2.7,3.62,3.62,0,0,0-.81-2.62,2.88,2.88,0,0,0-2.18-.71H62.3v6.77Z" transform="translate(-45.15 -24.54)" style="fill: #e11e3c;stroke: #e11e3c;stroke-miterlimit: 10;stroke-width: 0.75px"/>
    <path d="M76.94,33.26c.11.37.11.37.27,1,.16-.62.19-.71.26-1l2-6.76A7.84,7.84,0,0,0,79.83,25h3.31a16.75,16.75,0,0,0-.68,1.71l-3,8.46A12.22,12.22,0,0,0,79,36.67H75.38a11.29,11.29,0,0,0-.45-1.52l-3-8.46c-.29-.81-.43-1.16-.67-1.71h3.29a11.14,11.14,0,0,0,.34,1.52Z" transform="translate(-45.15 -24.54)" style="fill: #e11e3c;stroke: #e11e3c;stroke-miterlimit: 10;stroke-width: 0.75px"/>
  </g>
  <g>
    <path d="M46.51,40.62a2.69,2.69,0,0,0,0-.31V39.16a3,3,0,0,0,0-.31h.78c.42,0,.65.2.65.57a.58.58,0,0,1-.66.6H47v.27a2.73,2.73,0,0,0,0,.32Zm.76-.95a.21.21,0,0,0,.23-.23c0-.15-.08-.22-.23-.22H47v.45Z" transform="translate(-45.15 -24.54)" style="fill: #e11e3c"/>
    <path d="M49.63,40.64a2.74,2.74,0,0,0-.35,0h-1a2.73,2.73,0,0,0,0-.31V39.16a2.91,2.91,0,0,0,0-.31h1l.32,0v.4l-.32,0h-.55v.32h.46l.32,0v.39h-.78v.35h.9Z" transform="translate(-45.15 -24.54)" style="fill: #e11e3c"/>
    <path d="M51.08,40.62a2.32,2.32,0,0,0-.1-.33.71.71,0,0,0-.15-.28.23.23,0,0,0-.16-.06h-.22v.35a1.47,1.47,0,0,0,0,.32H50a2.45,2.45,0,0,0,0-.32V39.16a2.69,2.69,0,0,0,0-.31h.87c.34,0,.54.18.54.48a.48.48,0,0,1-.12.35.46.46,0,0,1-.21.1c.11,0,.16.09.23.24l.16.37a1.2,1.2,0,0,0,.1.22Zm-.3-1a.19.19,0,0,0,.2-.2c0-.12-.07-.18-.2-.18h-.33v.38Z" transform="translate(-45.15 -24.54)" style="fill: #e11e3c"/>
    <path d="M53,40h-.21v-.38h.73a2,2,0,0,0,0,.29v.24a2.58,2.58,0,0,0,0,.32,1.29,1.29,0,0,1-.27.13,1.33,1.33,0,0,1-.45.07.82.82,0,0,1-.63-.23,1,1,0,0,1-.25-.7.83.83,0,0,1,.87-.91.74.74,0,0,1,.61.25.71.71,0,0,1,.12.23l-.43.1a.27.27,0,0,0-.1-.15.28.28,0,0,0-.21-.07c-.27,0-.42.2-.42.56a.63.63,0,0,0,.13.44.41.41,0,0,0,.3.11.64.64,0,0,0,.31-.07V40Z" transform="translate(-45.15 -24.54)" style="fill: #e11e3c"/>
    <path d="M55.5,38.86a1.38,1.38,0,0,0,0,.32v.73a.7.7,0,0,1-.8.75.84.84,0,0,1-.61-.2.82.82,0,0,1-.18-.56v-.72a2.33,2.33,0,0,0,0-.32h.46a1.33,1.33,0,0,0,0,.32v.73c0,.26.12.39.37.39a.34.34,0,0,0,.38-.39v-.73a2.33,2.33,0,0,0,0-.32Z" transform="translate(-45.15 -24.54)" style="fill: #e11e3c"/>
    <path d="M56.94,39.72c.06.1.1.16.15.26,0-.1,0-.2,0-.32v-.48a2.58,2.58,0,0,0,0-.32h.45a2.92,2.92,0,0,0,0,.32v1.13a2.91,2.91,0,0,0,0,.31h-.46a3.09,3.09,0,0,0-.16-.27l-.39-.59a2,2,0,0,1-.16-.26,3,3,0,0,1,0,.32v.47a1.52,1.52,0,0,0,0,.33h-.46a1.43,1.43,0,0,0,0-.33V39.17a1.47,1.47,0,0,0,0-.31h.46a1.68,1.68,0,0,0,.15.26Z" transform="translate(-45.15 -24.54)" style="fill: #e11e3c"/>
    <path d="M58.85,40.3a2.88,2.88,0,0,0,0,.32H58.4a2.88,2.88,0,0,0,0-.32V39.23h-.25a1.77,1.77,0,0,0-.32,0v-.41l.31,0h.93l.33,0v.41l-.33,0h-.24Z" transform="translate(-45.15 -24.54)" style="fill: #e11e3c"/>
    <path d="M61.08,40.64a2.5,2.5,0,0,0-.35,0h-1a1.37,1.37,0,0,0,0-.31V39.16a1.47,1.47,0,0,0,0-.31h1l.32,0v.4l-.32,0h-.55v.32h.46l.32,0v.39h-.78v.35h.89Z" transform="translate(-45.15 -24.54)" style="fill: #e11e3c"/>
    <path d="M63.54,40.62c0-.1,0-.16,0-.23l-.06-.18h-.6l-.06.18a1.06,1.06,0,0,0-.05.23h-.5a1.78,1.78,0,0,0,.1-.26l.46-1.27a1.32,1.32,0,0,0,.07-.23h.55a2.2,2.2,0,0,0,.08.23l.46,1.27c0,.11.07.2.1.26Zm-.41-1.4-.2.64h.4Z" transform="translate(-45.15 -24.54)" style="fill: #e11e3c"/>
    <path d="M66,39.73a.84.84,0,0,1-.86.93.92.92,0,0,1,0-1.84A.82.82,0,0,1,66,39.73Zm-.44,0c0-.34-.16-.55-.41-.55s-.42.21-.42.55.16.56.42.56S65.57,40.08,65.57,39.73Z" transform="translate(-45.15 -24.54)" style="fill: #e11e3c"/>
    <path d="M68.47,40.62c0-.1,0-.16,0-.23l-.06-.18h-.61l0,.18a1.12,1.12,0,0,0-.06.23h-.49a1.78,1.78,0,0,0,.1-.26l.46-1.27a1.12,1.12,0,0,0,.06-.23h.56a1.64,1.64,0,0,0,.07.23l.46,1.27.1.26Zm-.42-1.4-.19.64h.39Z" transform="translate(-45.15 -24.54)" style="fill: #e11e3c"/>
    <path d="M69.3,39.16a2.54,2.54,0,0,0,0-.31H70a.85.85,0,0,1,.62.21.89.89,0,0,1,.23.65,1,1,0,0,1-.24.69.84.84,0,0,1-.6.21h-.76a2.54,2.54,0,0,0,0-.31Zm.7,1.09a.42.42,0,0,0,.31-.11.56.56,0,0,0,.14-.41.5.5,0,0,0-.13-.39.4.4,0,0,0-.33-.11h-.27v1Z" transform="translate(-45.15 -24.54)" style="fill: #e11e3c"/>
    <path d="M72,40.11a.62.62,0,0,1,0,.14,1.19,1.19,0,0,0,0-.14l.31-1a1.39,1.39,0,0,0,0-.23h.5c0,.06,0,.11-.11.26l-.45,1.27c0,.11,0,.18-.06.23h-.56s0-.13-.06-.23l-.46-1.27c0-.13-.06-.18-.09-.26h.49c0,.06,0,.15,0,.23Z" transform="translate(-45.15 -24.54)" style="fill: #e11e3c"/>
    <path d="M74.91,39.73a.84.84,0,0,1-.86.93.92.92,0,1,1,.86-.93Zm-.44,0c0-.34-.16-.55-.42-.55s-.41.21-.41.55.16.56.41.56S74.47,40.08,74.47,39.73Z" transform="translate(-45.15 -24.54)" style="fill: #e11e3c"/>
    <path d="M76.32,40h-.21v-.38h.73a1.15,1.15,0,0,0,0,.29v.24a1.47,1.47,0,0,0,0,.32,1.29,1.29,0,0,1-.27.13,1.37,1.37,0,0,1-.45.07.82.82,0,0,1-.63-.23.94.94,0,0,1-.25-.7.83.83,0,0,1,.87-.91.73.73,0,0,1,.6.25.58.58,0,0,1,.13.23l-.43.1a.33.33,0,0,0-.1-.15.28.28,0,0,0-.21-.07c-.27,0-.42.2-.42.56a.63.63,0,0,0,.13.44.39.39,0,0,0,.3.11.67.67,0,0,0,.31-.07V40Z" transform="translate(-45.15 -24.54)" style="fill: #e11e3c"/>
    <path d="M78.44,40.62a1.14,1.14,0,0,0,0-.23l0-.18h-.61l-.06.18c0,.09,0,.15,0,.23h-.5a1,1,0,0,0,.11-.26l.45-1.27a1.32,1.32,0,0,0,.07-.23h.56a1.64,1.64,0,0,0,.07.23l.46,1.27c0,.11.07.2.1.26ZM78,39.22l-.2.64h.4Z" transform="translate(-45.15 -24.54)" style="fill: #e11e3c"/>
    <path d="M79.27,39.16a1.42,1.42,0,0,0,0-.31H80a.84.84,0,0,1,.61.21.85.85,0,0,1,.24.65,1,1,0,0,1-.25.69.8.8,0,0,1-.59.21h-.76a2.82,2.82,0,0,0,0-.31ZM80,40.25a.43.43,0,0,0,.31-.11.56.56,0,0,0,.13-.41.54.54,0,0,0-.12-.39.41.41,0,0,0-.33-.11h-.28v1Z" transform="translate(-45.15 -24.54)" style="fill: #e11e3c"/>
    <path d="M82.9,39.73a.84.84,0,0,1-.86.93.92.92,0,1,1,.86-.93Zm-.44,0c0-.34-.16-.55-.42-.55s-.42.21-.42.55.16.56.42.56S82.46,40.08,82.46,39.73Z" transform="translate(-45.15 -24.54)" style="fill: #e11e3c"/>
  </g>
</svg>
